<?xml version="1.0" encoding="UTF-8" standalone="no"?><!DOCTYPE svg PUBLIC "-//W3C//DTD SVG 1.1//EN" "http://www.w3.org/Graphics/SVG/1.1/DTD/svg11.dtd"><svg width="100%" height="100%" viewBox="0 0 1700 1200" version="1.1" xmlns="http://www.w3.org/2000/svg" xmlns:xlink="http://www.w3.org/1999/xlink" xml:space="preserve" xmlns:serif="http://www.serif.com/" style="fill-rule:evenodd;clip-rule:evenodd;"><g id="diagram" opacity="0.53"><g><path id="XMLID_1_" d="M1697.5,2965.48c-0,235.604 -190.876,426.48 -426.481,426.48l-842.038,0c-235.605,0 -426.481,-190.876 -426.481,-426.48l0,-2536.52c0,-235.604 190.876,-426.48 426.481,-426.48l842.038,-0c235.605,-0 426.481,190.876 426.481,426.48l-0,2536.52Z" style="fill:#fff;fill-rule:nonzero;"/><clipPath id="_clip1"><path d="M1710.13,2965.48c0,235.604 -192.334,426.48 -429.738,426.48l-848.471,0c-237.404,0 -429.738,-190.876 -429.738,-426.48l0,-2536.52c0,-235.604 192.334,-426.48 429.738,-426.48l848.471,-0c237.404,-0 429.738,190.876 429.738,426.48l0,2536.52Z"/></clipPath><g clip-path="url(#_clip1)"><path d="M43.588,228.72l1603.66,0" style="fill:none;fill-rule:nonzero;stroke:#e30613;stroke-width:5.22px;"/></g><clipPath id="_clip2"><path d="M1697.5,2958.93c-0,235.605 -191.164,426.481 -427.124,426.481l-843.31,-0c-235.961,-0 -427.125,-190.876 -427.125,-426.481l0,-2536.52c0,-235.604 191.164,-426.48 427.125,-426.48l843.31,-0c235.96,-0 427.124,190.876 427.124,426.48l-0,2536.52Z"/></clipPath><g clip-path="url(#_clip2)"><path d="M4.629,1194.76l1692.87,0" style="fill:none;fill-rule:nonzero;stroke:#1d71b8;stroke-width:10.41px;"/></g><path id="XMLID_1_1" serif:id="XMLID_1_" d="M1697.5,2965.48c-0,235.604 -190.876,426.48 -426.481,426.48l-842.038,0c-235.605,0 -426.481,-190.876 -426.481,-426.48l0,-2536.52c0,-235.604 190.876,-426.48 426.481,-426.48l842.038,-0c235.605,-0 426.481,190.876 426.481,426.48l-0,2536.52Z" style="fill:none;fill-rule:nonzero;stroke:#000;stroke-width:5.2px;"/></g><g><path d="M166.389,501.286l573.754,-0" style="fill:none;fill-rule:nonzero;stroke:#e30613;stroke-width:5.22px;"/><path d="M166.389,600.389l573.754,0" style="fill:none;fill-rule:nonzero;stroke:#e30613;stroke-width:5.22px;"/><circle cx="453.266" cy="548.23" r="255.582" style="fill:#fff;stroke:#e30613;stroke-width:5.22px;"/><path d="M439.705,450.17l-0,63.634l-47.987,0" style="fill:none;fill-rule:nonzero;stroke:#e30613;stroke-width:5.22px;"/><path d="M467.871,450.17l-0,63.634l47.465,0" style="fill:none;fill-rule:nonzero;stroke:#e30613;stroke-width:5.22px;"/><path d="M439.705,647.854l-0,-63.634l-47.987,-0" style="fill:none;fill-rule:nonzero;stroke:#e30613;stroke-width:5.22px;"/><path d="M467.871,647.854l-0,-63.634l47.465,-0" style="fill:none;fill-rule:nonzero;stroke:#e30613;stroke-width:5.22px;"/><circle cx="453.266" cy="548.23" r="20.864" style="fill:#e30613;"/></g><g><path d="M1532.97,501.286l-573.754,-0" style="fill:none;fill-rule:nonzero;stroke:#e30613;stroke-width:5.22px;"/><path d="M1532.97,600.389l-573.754,0" style="fill:none;fill-rule:nonzero;stroke:#e30613;stroke-width:5.22px;"/><circle cx="1246.09" cy="549.273" r="255.582" style="fill:#fff;stroke:#e30613;stroke-width:5.22px;"/><path d="M1261.74,449.127l0,62.591l46.944,-0" style="fill:none;fill-rule:nonzero;stroke:#e30613;stroke-width:5.22px;"/><path d="M1230.44,449.127l0,62.591l-46.943,-0" style="fill:none;fill-rule:nonzero;stroke:#e30613;stroke-width:5.22px;"/><path d="M1261.74,647.333l0,-62.592l46.944,0" style="fill:none;fill-rule:nonzero;stroke:#e30613;stroke-width:5.22px;"/><path d="M1230.44,647.333l0,-62.592l-46.943,0" style="fill:none;fill-rule:nonzero;stroke:#e30613;stroke-width:5.22px;"/><circle cx="1246.09" cy="548.23" r="20.864" style="fill:#e30613;"/></g><g><path d="M748.75,229.041c0,54.665 45.379,99.112 101.19,99.112c55.81,0 101.189,-44.447 101.189,-99.112l-202.379,-0Z" style="fill:#0dcaf2;fill-rule:nonzero;stroke:#e30613;stroke-width:5.16px;"/><path d="M780.046,273.999l-0,21.968l17.734,0" style="fill:none;fill-rule:nonzero;stroke:#e30613;stroke-width:5.16px;"/><path d="M919.833,273.999l0,21.968l-18.255,0" style="fill:none;fill-rule:nonzero;stroke:#e30613;stroke-width:5.16px;"/></g></g></svg>