<?xml version="1.0" encoding="UTF-8" standalone="no"?><!DOCTYPE svg PUBLIC "-//W3C//DTD SVG 1.1//EN" "http://www.w3.org/Graphics/SVG/1.1/DTD/svg11.dtd"><svg width="100%" height="100%" viewBox="0 0 1700 1300" version="1.1" xmlns="http://www.w3.org/2000/svg" xmlns:xlink="http://www.w3.org/1999/xlink" xml:space="preserve" xmlns:serif="http://www.serif.com/" style="fill-rule:evenodd;clip-rule:evenodd;stroke-linecap:round;stroke-linejoin:round;stroke-miterlimit:1.5;"><g><path d="M425,0c-234.564,0 -425,190.436 -425,425l0,2812.17c0,234.564 190.436,425 425,425l850,-0c234.564,-0 425,-190.436 425,-425l-0,-2812.17c-0,-234.564 -190.436,-425 -425,-425l-850,0Z" style="fill:#fff;"/><g id="Синие"></g><g id="Лицевые"><path d="M1661.98,262.172l-1623.95,-0" style="fill:none;stroke:#cd0000;stroke-width:8.33px;"/></g><g id="Оффсайды"></g><g id="Усы"><path d="M1294.02,772.544l0,-78.462l-58.846,0" style="fill:none;stroke:#cb0000;stroke-width:8.33px;stroke-linecap:butt;stroke-linejoin:miter;"/><path d="M1323.44,772.544l-0,-78.462l58.846,0" style="fill:none;stroke:#cb0000;stroke-width:8.33px;stroke-linecap:butt;stroke-linejoin:miter;"/><path d="M1294.02,537.159l0,78.462l-58.846,-0" style="fill:none;stroke:#cb0000;stroke-width:8.33px;stroke-linecap:butt;stroke-linejoin:miter;"/><path d="M1323.44,537.159l-0,78.462l58.846,-0" style="fill:none;stroke:#cb0000;stroke-width:8.33px;stroke-linecap:butt;stroke-linejoin:miter;"/><path d="M1023.2,710.497l-54.289,0" style="fill:none;stroke:#cb0000;stroke-width:8.33px;stroke-linecap:butt;stroke-linejoin:miter;"/><path d="M1023.2,599.206l-54.289,0" style="fill:none;stroke:#cb0000;stroke-width:8.33px;stroke-linecap:butt;stroke-linejoin:miter;"/><path d="M1592.57,599.206l54.29,0" style="fill:none;stroke:#cb0000;stroke-width:8.33px;stroke-linecap:butt;stroke-linejoin:miter;"/><path d="M1592.57,710.497l54.29,0" style="fill:none;stroke:#cb0000;stroke-width:8.33px;stroke-linecap:butt;stroke-linejoin:miter;"/><path d="M378.003,772.544l0,-78.462l-58.846,0" style="fill:none;stroke:#cb0000;stroke-width:8.33px;stroke-linecap:butt;stroke-linejoin:miter;"/><path d="M407.426,772.544l0,-78.462l58.846,0" style="fill:none;stroke:#cb0000;stroke-width:8.33px;stroke-linecap:butt;stroke-linejoin:miter;"/><path d="M378.003,537.159l0,78.462l-58.846,-0" style="fill:none;stroke:#cb0000;stroke-width:8.33px;stroke-linecap:butt;stroke-linejoin:miter;"/><path d="M407.426,537.159l0,78.462l58.846,-0" style="fill:none;stroke:#cb0000;stroke-width:8.33px;stroke-linecap:butt;stroke-linejoin:miter;"/><path d="M107.181,710.497l-54.29,0" style="fill:none;stroke:#cb0000;stroke-width:8.33px;stroke-linecap:butt;stroke-linejoin:miter;"/><path d="M107.181,599.206l-54.29,0" style="fill:none;stroke:#cb0000;stroke-width:8.33px;stroke-linecap:butt;stroke-linejoin:miter;"/><path d="M676.554,599.206l54.289,0" style="fill:none;stroke:#cb0000;stroke-width:8.33px;stroke-linecap:butt;stroke-linejoin:miter;"/><path d="M676.554,710.497l54.289,0" style="fill:none;stroke:#cb0000;stroke-width:8.33px;stroke-linecap:butt;stroke-linejoin:miter;"/></g><g id="Круги-вбрасывания" serif:id="Круги вбрасывания"><g id="Центры-вбрасывания" serif:id="Центры вбрасывания"><g><path d="M1288.27,654.852c0,-10.826 8.79,-19.616 19.616,-19.616c10.826,0 19.615,8.79 19.615,19.616c0,10.826 -8.789,19.615 -19.615,19.615c-10.826,0 -19.616,-8.789 -19.616,-19.615Z" style="fill:#cb0000;"/><path d="M1293.17,654.852c0,-8.12 6.592,-14.712 14.712,-14.712c8.119,0 14.711,6.592 14.711,14.712c0,8.119 -6.592,14.711 -14.711,14.711c-8.12,0 -14.712,-6.592 -14.712,-14.711Z" style="fill:#fff;"/><path d="M1293.17,643.47l0,22.763l29.423,0l0,-22.763l-29.423,0Z" style="fill:#cb0000;"/></g><g><path d="M372.252,654.852c-0,-10.826 8.789,-19.616 19.615,-19.616c10.826,0 19.616,8.79 19.616,19.616c-0,10.826 -8.79,19.615 -19.616,19.615c-10.826,0 -19.615,-8.789 -19.615,-19.615Z" style="fill:#cb0000;"/><path d="M377.156,654.852c-0,-8.12 6.592,-14.712 14.711,-14.712c8.12,0 14.712,6.592 14.712,14.712c-0,8.119 -6.592,14.711 -14.712,14.711c-8.119,0 -14.711,-6.592 -14.711,-14.711Z" style="fill:#fff;"/><path d="M377.156,643.47l-0,22.763l29.423,0l-0,-22.763l-29.423,0Z" style="fill:#cb0000;"/></g></g><g><path d="M97.751,654.852c0,-162.327 131.789,-294.116 294.116,-294.116c162.327,-0 294.116,131.789 294.116,294.116c0,162.327 -131.789,294.116 -294.116,294.116c-162.327,-0 -294.116,-131.789 -294.116,-294.116Zm8.334,-0c-0,-157.728 128.055,-285.783 285.782,-285.783c157.728,0 285.783,128.055 285.783,285.783c-0,157.727 -128.055,285.782 -285.783,285.782c-157.727,0 -285.782,-128.055 -285.782,-285.782l-0,-0Z" style="fill:#cb0000;"/><path d="M1013.77,654.852c-0,-162.327 131.789,-294.116 294.116,-294.116c162.327,-0 294.116,131.789 294.116,294.116c-0,162.327 -131.789,294.116 -294.116,294.116c-162.327,-0 -294.116,-131.789 -294.116,-294.116Zm8.333,-0c0,-157.728 128.055,-285.783 285.783,-285.783c157.727,0 285.782,128.055 285.782,285.783c0,157.727 -128.055,285.782 -285.782,285.782c-157.728,0 -285.783,-128.055 -285.783,-285.782Z" style="fill:#cb0000;"/></g></g><path d="M425,0c-234.564,0 -425,190.436 -425,425l0,2812.17c0,234.564 190.436,425 425,425l850,-0c234.564,-0 425,-190.436 425,-425l-0,-2812.17c-0,-234.564 -190.436,-425 -425,-425l-850,0Zm0,8.333l850,0c229.965,0 416.667,186.702 416.667,416.667l-0,2812.17c-0,229.965 -186.702,416.667 -416.667,416.667l-850,-0c-229.965,-0 -416.667,-186.702 -416.667,-416.667l0,-2812.17c0,-229.965 186.702,-416.667 416.667,-416.667Z" style="fill:#4460d3;"/><g><path d="M967.55,262.172l-0,-39.249c-0,-21.878 -17.763,-39.314 -39.641,-39.314l-156.144,0c-21.699,0 -39.315,17.616 -39.315,39.314l0,39.249l235.1,-0Z" style="fill:#fff;"/><path d="M967.55,262.172l-0,-39.249c-0,-21.878 -17.763,-39.314 -39.641,-39.314l-156.144,0c-21.699,0 -39.315,17.616 -39.315,39.314l0,39.249l235.1,-0Zm-4.167,-4.167l-226.766,0c-0,0 -0,-35.082 -0,-35.082c-0,-19.398 15.749,-35.147 35.148,-35.147c-0,-0 156.144,-0 156.144,-0c19.569,-0 35.474,15.578 35.474,35.147l-0,35.082Z" style="fill:#cd0000;"/><path d="M732.326,262.172c0,64.921 52.629,117.55 117.55,117.55c64.921,-0 117.55,-52.629 117.55,-117.55l-117.55,-0l-117.55,-0Z" style="fill:#73c0ff;"/><path d="M732.326,262.172c0,64.921 52.629,117.55 117.55,117.55c64.921,-0 117.55,-52.629 117.55,-117.55l-117.55,-0l-117.55,-0Zm4.242,4.167l226.616,-0c-2.193,60.689 -52.083,109.216 -113.308,109.216c-61.225,-0 -111.116,-48.527 -113.308,-109.216l0,-0Z" style="fill:#cd0000;"/></g><path d="M0,1.271l0,3661.54l1700,-0l0,-3661.54l-1700,0Z" style="fill:none;"/><g id="Центральный-круг" serif:id="Центральный круг"></g><path d="M425,0c-234.564,0 -425,190.436 -425,425l0,2812.81c-0,234.563 190.436,425 425,425l850,-0c234.564,-0 425,-190.437 425,-425l0,-2812.81c0,-234.564 -190.436,-425 -425,-425l-850,0Z" style="fill:#fff;fill-opacity:0.32;"/></g></svg>