<?xml version="1.0" encoding="UTF-8" standalone="no"?><!DOCTYPE svg PUBLIC "-//W3C//DTD SVG 1.1//EN" "http://www.w3.org/Graphics/SVG/1.1/DTD/svg11.dtd"><svg width="100%" height="100%" viewBox="0 0 1417 2813" version="1.1" xmlns="http://www.w3.org/2000/svg" xmlns:xlink="http://www.w3.org/1999/xlink" xml:space="preserve" xmlns:serif="http://www.serif.com/" style="fill-rule:evenodd;clip-rule:evenodd;"><g id="diagram"><g><path id="XMLID_1_" d="M1407.34,2452.32c-0,194.31 -157.421,351.731 -351.731,351.731l-694.455,-0c-194.31,-0 -351.731,-157.421 -351.731,-351.731l0,-2091.94c0,-194.31 157.421,-351.731 351.731,-351.731l694.455,0c194.31,0 351.731,157.421 351.731,351.731l-0,2091.94Z" style="fill:#fff;fill-rule:nonzero;"/><clipPath id="_clip1"><path d="M1417.76,2452.32c0,194.31 -158.624,351.731 -354.418,351.731l-699.759,-0c-195.794,-0 -354.418,-157.421 -354.418,-351.731l0,-2091.94c0,-194.31 158.624,-351.731 354.418,-351.731l699.759,0c195.794,0 354.418,157.421 354.418,351.731l0,2091.94Z"/></clipPath><g clip-path="url(#_clip1)"><path d="M43.312,195.237l1322.58,0" style="fill:none;fill-rule:nonzero;stroke:#e30613;stroke-width:4.31px;"/></g><clipPath id="_clip2"><path d="M1407.34,2452.32c-0,194.31 -157.421,351.731 -351.731,351.731l-694.455,-0c-194.31,-0 -351.731,-157.421 -351.731,-351.731l0,-2091.94c0,-194.31 157.421,-351.731 351.731,-351.731l694.455,0c194.31,0 351.731,157.421 351.731,351.731l-0,2091.94Z"/></clipPath><g clip-path="url(#_clip2)"><path d="M51.89,2618.75l1312.56,0" style="fill:none;fill-rule:nonzero;stroke:#e30613;stroke-width:4.29px;"/></g><clipPath id="_clip3"><path d="M1407.34,2452.32c-0,194.31 -157.659,351.731 -352.262,351.731l-695.503,-0c-194.603,-0 -352.262,-157.421 -352.262,-351.731l-0,-2091.94c-0,-194.31 157.659,-351.731 352.262,-351.731l695.503,0c194.603,0 352.262,157.421 352.262,351.731l-0,2091.94Z"/></clipPath><g clip-path="url(#_clip3)"><path d="M11.181,997.356l1396.16,-0" style="fill:none;fill-rule:nonzero;stroke:#1d71b8;stroke-width:8.59px;"/></g><clipPath id="_clip4"><path d="M1407.34,2452.32c-0,194.31 -157.857,351.731 -352.705,351.731l-696.378,-0c-194.848,-0 -352.705,-157.421 -352.705,-351.731l0,-2091.94c0,-194.31 157.857,-351.731 352.705,-351.731l696.378,0c194.848,0 352.705,157.421 352.705,351.731l-0,2091.94Z"/></clipPath><g clip-path="url(#_clip4)"><path d="M9.425,1816.63l1397.92,-0" style="fill:none;fill-rule:nonzero;stroke:#1d71b8;stroke-width:8.59px;"/></g><clipPath id="_clip5"><path d="M1407.34,2453.82c-0,194.31 -157.857,351.731 -352.705,351.731l-696.378,-0c-194.848,-0 -352.705,-157.421 -352.705,-351.731l0,-2091.94c0,-194.31 157.857,-351.731 352.705,-351.731l696.378,-0c194.848,-0 352.705,157.421 352.705,351.731l-0,2091.94Z"/></clipPath><g clip-path="url(#_clip5)"><path d="M9.425,1406.35l1397.92,0" style="fill:none;fill-rule:nonzero;stroke:#e30613;stroke-width:8.59px;"/></g><path id="XMLID_1_1" serif:id="XMLID_1_" d="M1407.34,2452.32c-0,194.31 -157.421,351.731 -351.731,351.731l-694.455,-0c-194.31,-0 -351.731,-157.421 -351.731,-351.731l0,-2091.94c0,-194.31 157.421,-351.731 351.731,-351.731l694.455,0c194.31,0 351.731,157.421 351.731,351.731l-0,2091.94Z" style="fill:none;fill-rule:nonzero;stroke:#000;stroke-width:4.29px;"/></g><g><path d="M146.247,431.124l471.801,0" style="fill:none;fill-rule:nonzero;stroke:#e30613;stroke-width:4.29px;"/><path d="M146.247,512.617l471.801,-0" style="fill:none;fill-rule:nonzero;stroke:#e30613;stroke-width:4.29px;"/><circle cx="382.148" cy="469.726" r="210.166" style="fill:#fff;stroke:#e30613;stroke-width:4.29px;"/><path d="M370.996,389.091l-0,52.327l-39.46,-0" style="fill:none;fill-rule:nonzero;stroke:#e30613;stroke-width:4.29px;"/><path d="M394.157,389.091l0,52.327l39.031,-0" style="fill:none;fill-rule:nonzero;stroke:#e30613;stroke-width:4.29px;"/><path d="M370.996,551.648l-0,-52.327l-39.46,-0" style="fill:none;fill-rule:nonzero;stroke:#e30613;stroke-width:4.29px;"/><path d="M394.157,551.648l0,-52.327l39.031,-0" style="fill:none;fill-rule:nonzero;stroke:#e30613;stroke-width:4.29px;"/><circle cx="382.148" cy="469.726" r="17.156" style="fill:#e30613;"/></g><g><path d="M1269.99,431.124l-471.8,0" style="fill:none;fill-rule:nonzero;stroke:#e30613;stroke-width:4.29px;"/><path d="M1269.99,512.617l-471.8,-0" style="fill:none;fill-rule:nonzero;stroke:#e30613;stroke-width:4.29px;"/><circle cx="1034.09" cy="470.584" r="210.166" style="fill:#fff;stroke:#e30613;stroke-width:4.29px;"/><path d="M1046.96,388.233l0,51.469l38.602,0" style="fill:none;fill-rule:nonzero;stroke:#e30613;stroke-width:4.29px;"/><path d="M1021.22,388.233l-0,51.469l-38.602,0" style="fill:none;fill-rule:nonzero;stroke:#e30613;stroke-width:4.29px;"/><path d="M1046.96,551.219l0,-51.469l38.602,-0" style="fill:none;fill-rule:nonzero;stroke:#e30613;stroke-width:4.29px;"/><path d="M1021.22,551.219l-0,-51.469l-38.602,-0" style="fill:none;fill-rule:nonzero;stroke:#e30613;stroke-width:4.29px;"/><circle cx="1034.09" cy="469.726" r="17.156" style="fill:#e30613;"/></g><g><path d="M146.247,2375.8l472.23,0" style="fill:none;fill-rule:nonzero;stroke:#e30613;stroke-width:4.29px;"/><path d="M146.247,2293.02l472.23,0" style="fill:none;fill-rule:nonzero;stroke:#e30613;stroke-width:4.29px;"/><circle cx="382.148" cy="2335.48" r="210.166" style="fill:#fff;stroke:#e30613;stroke-width:4.29px;"/><path d="M369.28,2416.97l0,-51.469l-38.602,0" style="fill:none;fill-rule:nonzero;stroke:#e30613;stroke-width:4.29px;"/><path d="M395.015,2416.97l-0,-51.469l38.602,0" style="fill:none;fill-rule:nonzero;stroke:#e30613;stroke-width:4.29px;"/><path d="M369.28,2253.99l0,51.469l-38.602,-0" style="fill:none;fill-rule:nonzero;stroke:#e30613;stroke-width:4.29px;"/><path d="M395.015,2253.99l-0,51.469l38.602,-0" style="fill:none;fill-rule:nonzero;stroke:#e30613;stroke-width:4.29px;"/><circle cx="382.148" cy="2335.48" r="17.156" style="fill:#e30613;"/></g><g opacity="0.47"><path d="M746.765,1282.77c8.365,2.321 16.741,4.616 25.072,7.065c1.815,4.282 3.759,8.503 5.609,12.776c-14.626,-4.084 -29.286,-8.075 -43.937,-12.107c4.436,-2.562 8.846,-5.139 13.256,-7.734Zm-100.855,18.06c10.163,-4.907 20.267,-9.924 30.424,-14.849c34.234,9.361 68.478,18.685 102.722,28.001c5.694,11.792 11.337,23.618 17.058,35.401c2.774,4.889 2.431,10.738 3.707,16.08c5.01,3.58 10.002,7.186 14.858,10.971c6.61,6.465 13.195,12.955 19.771,19.454c-0.402,0.3 -1.216,0.891 -1.627,1.182c-2.68,-2.783 -5.104,-5.806 -7.801,-8.571c1.259,3.613 3.212,7.278 3.468,11.072c-2.449,1.558 -5.377,-0.301 -7.997,-0.574c-1.688,-3.425 -2.347,-7.595 -5.412,-10.156c-2.321,-2.209 -4.591,-4.478 -6.945,-6.645c1.413,2.791 3.151,5.412 4.581,8.195c0.993,2.431 1.396,5.061 2.107,7.586c-3.64,-0.736 -7.279,-1.42 -10.919,-2.123c-0.522,-2.278 -0.727,-4.684 -1.678,-6.824c-2.894,-3.606 -5.934,-7.108 -9.093,-10.482c2.063,5.275 5.608,10.207 5,16.159c-1.396,-0.266 -2.783,-0.522 -4.17,-0.78c6.105,9.634 12.022,19.387 18.153,28.995c-7.98,3.536 -16.123,6.696 -24.172,10.053c-4.633,0.925 -9.438,0.573 -14.138,1.019c-5.026,-5.9 -10.13,-11.74 -15.174,-17.631c-6.91,10.121 -14.326,19.917 -21.082,30.133c-0.214,14.129 -0.017,28.275 -0.394,42.395c10.841,7.605 22.007,14.754 32.95,22.23c9.582,-3.597 19.148,-7.253 28.73,-10.857c0.625,1.747 1.276,3.501 1.944,5.257c-6.432,5.882 -12.974,11.655 -19.422,17.528c-0.744,0.514 -1.344,1.482 -2.346,1.431c-8.58,0.565 -17.186,0.933 -25.766,1.584c-10.833,-9.36 -21.733,-18.642 -32.54,-28.044c-1.815,4.187 -3.622,8.383 -5.351,12.613c-3.246,-8.563 -6.646,-17.057 -9.891,-25.612c-6.585,5.386 -13.847,9.925 -20.679,15.011c-1.166,4.144 -2.193,8.331 -3.494,12.442c-1.918,-10.481 -3.571,-21.005 -5.533,-31.47c-5.986,8.461 -12.578,16.477 -18.795,24.782c-7.621,-13.931 -15.619,-27.658 -23.06,-41.684c-1.225,6.319 -2.818,12.57 -3.956,18.915c-8.247,-14.566 -16.355,-29.2 -24.602,-43.766c-0.548,-1.009 -1.147,-2.055 -1.088,-3.245c-0.214,-4.581 -0.367,-9.163 -0.548,-13.743c-2.928,3.605 -5.736,7.304 -8.563,10.995c-0.924,-4.856 -2.183,-9.643 -3.031,-14.506c3.836,-11.012 8.28,-21.836 12.331,-32.78c-5.883,0.026 -11.757,0.394 -17.632,0.574c8.521,-10.088 16.973,-20.234 25.535,-30.287c-9.462,2.097 -18.889,4.366 -28.335,6.568c1.927,-4.642 3.966,-9.231 5.84,-13.898c-5.403,-8.555 -10.84,-17.1 -16.184,-25.69c4.813,-9.633 9.479,-19.326 14.215,-28.994c7.51,-0.882 15.02,-1.773 22.538,-2.603c10.062,5.806 20.131,11.585 30.193,17.375c1.173,0.898 2.672,0.461 4.016,0.487c5.001,-0.248 9.994,-0.599 15.003,-0.694c-4.719,-2.405 -9.146,-5.325 -13.726,-7.98Zm-51.542,1.747c-3.921,8.032 -8.204,15.876 -12.142,23.899c4.521,-2.552 8.983,-5.214 13.496,-7.783c2.611,-1.182 3.27,-4.213 4.674,-6.448c0.514,-0.043 1.533,-0.12 2.047,-0.163c8.52,12.056 17.075,24.096 25.596,36.153c-3.683,1.755 -7.356,3.511 -10.962,5.412c12.048,-0.446 24.08,-1.302 36.128,-1.781c22.812,0.874 45.624,1.695 68.435,2.62c4.154,9.54 8.136,19.155 12.502,28.592c15.294,-0.993 30.631,-1.378 45.942,-2.029c4.152,1.446 7.903,3.93 11.842,5.9c-6.517,-14.309 -12.93,-28.67 -19.327,-43.03c-9.77,-5.891 -19.378,-12.04 -28.917,-18.291c-14.754,5.284 -29.482,10.619 -44.229,15.894c-32.299,-13.214 -64.625,-26.349 -96.95,-39.485c-2.706,-0.291 -5.438,0.275 -8.135,0.54Zm68.033,6.148c4.291,2.064 8.769,3.743 13.188,5.523c1.463,0.737 2.997,-0.068 4.435,-0.436c4.273,-1.353 8.589,-2.543 12.845,-3.914c-3.931,-2.526 -8.272,-4.299 -12.382,-6.507c-6.037,1.738 -12.067,3.519 -18.086,5.334Zm43.253,-1.627c-0.035,0.214 -0.112,0.626 -0.155,0.84c2.723,1.335 5.609,2.303 8.426,3.425c3.434,-1.114 6.911,-2.081 10.353,-3.169c-2.809,-1.361 -5.438,-3.408 -8.52,-3.982c-3.417,0.754 -6.765,1.85 -10.104,2.886Zm20.859,9.368c2.184,1.559 4.735,2.5 7.279,3.306c3.006,-0.497 5.857,-1.645 8.794,-2.424c-2.012,-1.481 -4.273,-2.569 -6.508,-3.674c-3.211,0.848 -6.405,1.747 -9.565,2.792Zm-17.957,2.492c-4.272,1.31 -8.597,2.474 -12.836,3.896c3.982,1.918 8.152,3.392 12.229,5.104c4.555,-1.456 9.161,-2.749 13.726,-4.196c-3.16,-1.764 -6.397,-3.357 -9.642,-4.942c-1.096,-0.71 -2.354,-0.127 -3.477,0.138Zm-58.391,51.961c4.17,0.026 8.341,-0.069 12.511,-0.129c1.814,0.171 3.185,-1.164 4.589,-2.09c3.254,-2.423 6.646,-4.65 9.907,-7.055c-4.195,-0.043 -8.511,-0.976 -12.648,-0.257c-4.897,2.989 -9.65,6.251 -14.359,9.531Zm26.905,-0.634c4.042,0.06 8.092,-0.128 12.134,-0.198c2.774,-2.457 5.669,-4.794 8.263,-7.449c-3.04,-0.128 -6.08,-0.523 -9.119,-0.325c-3.922,2.388 -7.716,5.061 -11.278,7.972Zm30.279,-6.979c-2.646,1.927 -5,4.221 -7.365,6.473c3.409,-0.085 6.851,0.069 10.242,-0.334c2.492,-1.61 4.479,-3.87 6.611,-5.899c-3.16,-0.06 -6.337,-0.575 -9.488,-0.24Zm87.952,4.273c1.241,4.992 5.351,8.101 9.058,11.277c-2.114,-4.435 -5.334,-8.125 -9.058,-11.277Zm-174.31,28.01c6.996,-0.043 14,-0.163 20.988,-0.454c1.439,-0.026 2.518,-1.114 3.656,-1.841c5.643,-4.187 11.543,-8.032 17.084,-12.356c-6.286,-0.317 -12.58,-0.557 -18.865,-0.832c-7.578,5.224 -15.38,10.139 -22.863,15.483Zm41.368,-1.164c6.336,-0.129 12.69,-0.146 19.009,-0.626c4.617,-3.528 8.804,-7.604 13.085,-11.526c-4.864,-0.162 -9.728,-0.488 -14.592,-0.565c-5.779,4.308 -11.826,8.263 -17.502,12.717Zm35.751,-1.079c5.3,-0.155 10.626,-0.155 15.918,-0.524c3.7,-2.706 6.97,-6.053 10.242,-9.281c-4.856,-0.12 -9.702,-0.428 -14.549,-0.626c-3.905,3.442 -7.87,6.808 -11.611,10.431Zm37.317,4.845c-1.344,0.129 -2.098,1.319 -2.903,2.236c-4.067,5.069 -8.186,10.087 -12.365,15.062c7.681,-1.661 15.217,-3.905 22.821,-5.875c3.21,-4.983 6.739,-9.744 9.933,-14.745c-5.797,1.268 -11.681,2.142 -17.486,3.322Zm28.832,7.776c1.507,0.342 3.014,0.694 4.53,1.079c2.432,-1.85 4.863,-3.708 7.296,-5.566c-1.028,-0.616 -2.056,-1.241 -3.075,-1.867c-2.894,2.149 -5.857,4.204 -8.751,6.354Zm-70.773,0.102c-7.905,7.306 -15.491,14.995 -23.095,22.607c10.747,-2.808 21.57,-5.437 32.231,-8.554c5.437,-5.986 10.379,-12.45 15.516,-18.701c-8.229,1.463 -16.501,2.842 -24.652,4.648Zm80.578,2.466c1.062,0.292 2.132,0.506 3.194,0.823c1.695,-1.447 3.433,-2.86 5.172,-4.265c-0.557,-0.299 -1.671,-0.89 -2.235,-1.19c-1.987,1.611 -4.025,3.169 -6.131,4.632Zm8.443,2.236c0.694,0.223 1.413,0.453 2.124,0.685c0.89,-1.088 4.478,-2.595 2.141,-3.974c-1.516,0.977 -2.87,2.167 -4.265,3.289Zm-130.27,2.748c-2.26,0.138 -3.536,2.158 -4.984,3.606c-7.107,7.749 -14.505,15.242 -21.501,23.077c6.336,-1.532 12.673,-3.083 18.983,-4.71c2.365,-0.642 5.061,-0.967 6.74,-2.962c7.732,-7.758 15.593,-15.38 23.351,-23.121c-7.545,1.284 -15.062,2.741 -22.589,4.11Zm137.754,-1.002c1.121,1.337 2.672,0.523 3.656,-0.522c-0.762,-2.285 -2.441,-0.051 -3.656,0.522Zm7.416,1.688c0.102,0.367 0.29,1.096 0.393,1.455c0.848,0.412 1.695,0.48 2.553,0.197c-0.138,-0.35 -0.412,-1.053 -0.549,-1.412c-0.788,-0.591 -1.584,-0.668 -2.397,-0.24Zm-34.493,0.291c2.492,2.852 4.932,5.755 7.527,8.511c0.762,-0.094 2.287,-0.273 3.049,-0.367c-1.85,-2.398 -3.674,-4.813 -5.489,-7.236c-1.695,-0.308 -3.4,-0.617 -5.087,-0.908Zm9.84,1.806c1.54,2.005 3.073,4.025 4.58,6.063c0.592,-0.059 1.782,-0.171 2.381,-0.222c-1.241,-1.772 -2.501,-3.528 -3.75,-5.275c-1.079,-0.197 -2.15,-0.377 -3.211,-0.566Zm7.869,1.311c1.327,1.439 2.089,4.77 4.581,4.101c-1.199,-1.721 -2.184,-3.938 -4.581,-4.101Zm6.911,1.439c-0.583,1.173 1.361,3.167 2.525,2.389c0.54,-1.345 -1.199,-3.083 -2.525,-2.389Zm-62.168,5.154c-1.516,4.453 -2.955,8.932 -4.265,13.453c3.254,-2.038 6.482,-4.102 9.745,-6.123c1.19,-4.016 2.518,-7.98 3.639,-12.005c-3.091,1.447 -6.079,3.116 -9.119,4.675Zm68.376,-4.324c-0.352,1.345 0.188,1.841 1.609,1.472c0.334,-1.343 -0.205,-1.84 -1.609,-1.472Zm-65.611,23.394c1.713,7.793 3.383,15.602 5.129,23.386c0.66,-7.288 0.069,-14.677 0.857,-21.939c3.836,-6.328 8.169,-12.365 12.117,-18.625c-6.131,5.627 -12.066,11.458 -18.103,17.178Zm-25.775,-6.945c-0.941,0.437 -1.66,1.191 -1.986,2.184c-2.286,5.48 -4.701,10.91 -6.987,16.399c4.298,-2.569 8.52,-5.275 12.767,-7.922c1.293,-0.607 1.559,-2.064 1.987,-3.279c1.232,-4.145 2.654,-8.229 3.801,-12.399c-3.185,1.686 -6.422,3.287 -9.582,5.017Zm-34.141,18.085c-4.203,7.528 -7.68,15.499 -11.491,23.25c6.996,-4.265 14.164,-8.332 20.877,-13.017c3.142,-6.439 5.746,-13.152 8.58,-19.737c-6.012,3.127 -12.074,6.183 -17.966,9.504Zm52.193,-5.188c-0.531,2.825 -1.028,5.651 -1.439,8.503c1.799,-1.516 3.837,-2.817 5.301,-4.685c0.676,-2.413 0.873,-4.923 1.258,-7.388c-1.713,1.181 -3.416,2.381 -5.12,3.57Zm-13.633,10.13c-1.318,3.605 -2.115,7.39 -3.065,11.105c2.509,-2.123 5.249,-4.006 7.509,-6.396c0.848,-3.057 1.122,-6.233 1.662,-9.342c-2.055,1.508 -4.359,2.749 -6.106,4.633Zm-17.734,12.45c-1.208,0.737 -1.413,2.218 -1.85,3.434c-1.199,4.093 -2.713,8.075 -3.818,12.194c3.801,-3.28 7.963,-6.166 11.491,-9.737c1.422,-4.119 2.389,-8.374 3.51,-12.579c-3.116,2.227 -6.293,4.376 -9.333,6.688Zm119.891,-120.593c0.523,0.89 1.036,1.781 1.567,2.672c-0.368,2.62 -0.634,5.249 -1.088,7.852c-0.247,-0.291 -0.744,-0.874 -0.992,-1.164c-0.061,-3.126 0.343,-6.243 0.513,-9.36Zm6.722,2.723c2.124,1.987 4.291,3.922 6.543,5.763c-0.283,3.947 -0.609,7.887 -0.891,11.834c-2.278,-1.995 -4.77,-3.742 -6.945,-5.832c-0.188,-3.912 0.899,-7.852 1.293,-11.765Zm-82.453,2.021c2.997,0.351 6.028,0.411 9.016,0.916c1.867,0.788 3.545,1.97 5.327,2.937c0.924,4.144 1.721,8.315 2.689,12.459c-3.392,-0.026 -6.962,0.719 -10.233,0.146c-2.424,-5.421 -4.478,-10.995 -6.799,-16.458Zm26.229,16.065c0.265,-1.345 0.538,-2.673 0.804,-4.008c1.85,1.215 3.7,2.44 5.506,3.724c-2.107,0.112 -4.204,0.215 -6.31,0.284Zm61.833,53.381c4.342,-4.401 8.546,-8.939 12.836,-13.401c0.043,1.345 0.077,2.706 0.085,4.059c-0.616,0.582 -2.997,1.772 -1.181,2.552c1.362,0.513 0.531,2.081 0.685,3.134c-0.813,0.419 -1.61,0.865 -2.389,1.344c0.488,0.891 1.173,1.627 2.046,2.21c-0.128,1.618 -0.273,3.245 -0.402,4.871c-1.301,1.157 -2.749,2.227 -4.589,2.081c-2.33,-2.32 -4.805,-4.495 -7.091,-6.85Zm8.435,-4.385c0.393,-0.315 1.181,-0.95 1.566,-1.267c-0.282,-2.252 -3.93,0.583 -1.566,1.267Zm-2.458,3.905c0.274,1.208 2.167,0.788 2.92,0.275c1.224,-2.099 -2.697,-2.073 -2.92,-0.275Zm-37.96,16.759c7.553,-2.767 14.908,-6.098 22.453,-8.881c2.808,2.235 5,5.155 7.758,7.459c3.905,0.035 7.809,-0.463 11.722,-0.625c-8.118,7.561 -16.355,15.002 -24.49,22.537c1.781,-6.293 3.537,-12.604 5.335,-18.898c-7.596,0.258 -15.182,0.728 -22.778,0.933c-6.156,4.737 -12.305,9.497 -18.419,14.293c-1.01,0.651 -1.79,1.875 -3.083,1.918c2.851,-5.369 3.948,-11.551 6.2,-17.212c5.095,-0.506 10.232,-0.753 15.302,-1.524Zm-39.39,38.053c8.914,-3.665 17.794,-7.415 26.708,-11.08c-4.041,4.735 -8.066,9.488 -12.048,14.284c6.979,1.857 13.992,3.587 20.946,5.539c6.156,-6.397 12.287,-12.81 18.384,-19.258c-1.893,6.996 -3.562,14.044 -5.489,21.031c-9.077,2.749 -17.726,6.68 -26.657,9.821c-7.236,-6.832 -14.608,-13.512 -21.844,-20.337Z" style="fill:#fff;fill-rule:nonzero;"/><path d="M719.157,1286.7c8.555,-4.907 17.075,-9.874 25.646,-14.763c11.347,3.168 22.77,6.063 34.099,9.292c4.436,8.938 8.229,18.17 12.638,27.119c0.712,1.609 2.141,2.706 3.375,3.896c6.517,6.071 12.982,12.193 19.506,18.247c-0.941,3.194 -1.832,6.422 -2.74,9.634c6.371,5.926 13.008,11.568 19.644,17.212c-0.206,7.175 -0.608,14.352 -1.062,21.527c5.052,4.445 10.266,8.691 15.396,13.05c0.3,15.55 -0.393,31.101 0.086,46.643c-10.353,9.283 -20.654,18.616 -31.016,27.89c-1.677,1.241 -1.686,3.528 -2.32,5.343c-1.07,4.607 -2.714,9.086 -3.546,13.743c1.037,7.776 2.296,15.525 3.444,23.292c-10.08,8.889 -20.175,17.768 -30.314,26.588c-10.447,0.557 -20.877,1.302 -31.315,2.013c-8.64,-7.288 -17.289,-14.566 -25.954,-21.819c-3.289,8.247 -6.8,16.416 -9.882,24.747c-4.274,-13.212 -9.162,-26.228 -13.65,-39.372c-2.423,2.046 -6.507,2.714 -7.407,6.113c-4.462,12.751 -8.76,25.561 -13.444,38.234c-2.894,-13.341 -6.448,-26.527 -9.65,-39.792c-5.139,6.73 -10.344,13.41 -15.414,20.183c-5.343,-10.806 -10.841,-21.545 -16.261,-32.317c-1.653,5.558 -3.297,11.124 -4.984,16.682c-11.457,-19.705 -22.94,-39.391 -34.32,-59.137c-2.244,3.014 -4.53,5.994 -6.714,9.051c-3.75,-14.24 -7.553,-28.472 -11.312,-42.721c2.826,-6.936 5.566,-13.916 8.453,-20.825c-9.206,0.343 -18.421,0.487 -27.617,0.898c8.178,-8.383 16.022,-17.091 24.088,-25.577c-6.053,0.531 -12.108,1.079 -18.162,1.601c3.305,-7.741 6.507,-15.516 9.813,-23.257c-4.94,-7.972 -9.874,-15.944 -14.865,-23.882c-0.616,-0.943 -1.354,-2.073 -0.6,-3.169c6.106,-12.707 12.366,-25.338 18.53,-38.02c10.593,-1.19 21.177,-2.431 31.761,-3.691c7.51,4.403 15.002,8.837 22.435,13.367c13.675,-6.362 27.23,-12.989 40.888,-19.378c14.258,3.751 28.499,7.544 42.747,11.355Zm27.608,-3.931c-4.41,2.595 -8.82,5.172 -13.256,7.734c14.651,4.032 29.311,8.023 43.937,12.107c-1.85,-4.273 -3.794,-8.494 -5.609,-12.776c-8.331,-2.449 -16.707,-4.744 -25.072,-7.065Zm-100.855,18.06c4.58,2.655 9.007,5.575 13.726,7.98c-5.009,0.095 -10.002,0.446 -15.003,0.694c-1.344,-0.026 -2.843,0.411 -4.016,-0.487c-10.062,-5.79 -20.131,-11.569 -30.193,-17.375c-7.518,0.83 -15.028,1.721 -22.538,2.603c-4.736,9.668 -9.402,19.361 -14.215,28.994c5.344,8.59 10.781,17.135 16.184,25.69c-1.874,4.667 -3.913,9.256 -5.84,13.898c9.446,-2.202 18.873,-4.471 28.335,-6.568c-8.562,10.053 -17.014,20.199 -25.535,30.287c5.875,-0.18 11.749,-0.548 17.632,-0.574c-4.051,10.944 -8.495,21.768 -12.331,32.78c0.848,4.863 2.107,9.65 3.031,14.506c2.827,-3.691 5.635,-7.39 8.563,-10.995c0.181,4.58 0.334,9.162 0.548,13.743c-0.059,1.19 0.54,2.236 1.088,3.245c8.247,14.566 16.355,29.2 24.602,43.766c1.138,-6.345 2.731,-12.596 3.956,-18.915c7.441,14.026 15.439,27.753 23.06,41.684c6.217,-8.305 12.809,-16.321 18.795,-24.782c1.962,10.465 3.615,20.989 5.533,31.47c1.301,-4.111 2.328,-8.298 3.494,-12.442c6.832,-5.086 14.094,-9.625 20.679,-15.011c3.245,8.555 6.645,17.049 9.891,25.612c1.729,-4.23 3.536,-8.426 5.351,-12.613c10.807,9.402 21.707,18.684 32.54,28.044c8.58,-0.651 17.186,-1.019 25.766,-1.584c1.002,0.051 1.602,-0.917 2.346,-1.431c6.448,-5.873 12.99,-11.646 19.422,-17.528c-0.668,-1.756 -1.319,-3.51 -1.944,-5.257c-9.582,3.604 -19.148,7.26 -28.73,10.857c-10.943,-7.476 -22.109,-14.625 -32.95,-22.23c0.377,-14.12 0.18,-28.266 0.394,-42.395c6.756,-10.216 14.172,-20.012 21.082,-30.133c5.044,5.891 10.148,11.731 15.174,17.631c4.7,-0.446 9.505,-0.094 14.138,-1.019c8.049,-3.357 16.192,-6.517 24.172,-10.053c-6.131,-9.608 -12.048,-19.361 -18.153,-28.995c1.387,0.258 2.774,0.514 4.17,0.78c0.608,-5.952 -2.937,-10.884 -5,-16.159c3.159,3.374 6.199,6.876 9.093,10.482c0.951,2.14 1.156,4.546 1.678,6.824c3.64,0.703 7.279,1.387 10.919,2.123c-0.711,-2.525 -1.114,-5.155 -2.107,-7.586c-1.43,-2.783 -3.168,-5.404 -4.581,-8.195c2.354,2.167 4.624,4.436 6.945,6.645c3.065,2.561 3.724,6.731 5.412,10.156c2.62,0.273 5.548,2.132 7.997,0.574c-0.256,-3.794 -2.209,-7.459 -3.468,-11.072c2.697,2.765 5.121,5.788 7.801,8.571c0.411,-0.291 1.225,-0.882 1.627,-1.182c-6.576,-6.499 -13.161,-12.989 -19.771,-19.454c-4.856,-3.785 -9.848,-7.391 -14.858,-10.971c-1.276,-5.342 -0.933,-11.191 -3.707,-16.08c-5.721,-11.783 -11.364,-23.609 -17.058,-35.401c-34.244,-9.316 -68.488,-18.64 -102.722,-28.001c-10.157,4.925 -20.261,9.942 -30.424,14.849Zm149.245,23.523c2.38,4.761 4.384,9.753 7.286,14.223c0.625,-2.175 1.208,-4.358 1.85,-6.525c-2.946,-2.689 -6.045,-5.189 -9.136,-7.698Zm13.777,26.862c-0.17,3.117 -0.574,6.234 -0.513,9.36c0.248,0.29 0.745,0.873 0.992,1.164c0.454,-2.603 0.72,-5.232 1.088,-7.852c-0.531,-0.891 -1.044,-1.782 -1.567,-2.672Zm6.722,2.723c-0.394,3.913 -1.481,7.853 -1.293,11.765c2.175,2.09 4.667,3.837 6.945,5.832c0.282,-3.947 0.608,-7.887 0.891,-11.834c-2.252,-1.841 -4.419,-3.776 -6.543,-5.763Zm5.609,71.467c2.286,2.355 4.761,4.53 7.091,6.85c1.84,0.146 3.288,-0.924 4.589,-2.081c0.129,-1.626 0.274,-3.253 0.402,-4.871c-0.873,-0.583 -1.558,-1.319 -2.046,-2.21c0.779,-0.479 1.576,-0.925 2.389,-1.344c-0.154,-1.053 0.677,-2.621 -0.685,-3.134c-1.816,-0.78 0.565,-1.97 1.181,-2.552c-0.008,-1.353 -0.042,-2.714 -0.085,-4.059c-4.29,4.462 -8.494,9 -12.836,13.401Zm-31.983,16.279c-5.07,0.771 -10.207,1.018 -15.302,1.524c-2.252,5.661 -3.349,11.843 -6.2,17.212c1.293,-0.043 2.073,-1.267 3.083,-1.918c6.114,-4.796 12.263,-9.556 18.419,-14.293c7.596,-0.205 15.182,-0.675 22.778,-0.933c-1.798,6.294 -3.554,12.605 -5.335,18.898c8.135,-7.535 16.372,-14.976 24.49,-22.537c-3.913,0.162 -7.817,0.66 -11.722,0.625c-2.758,-2.304 -4.95,-5.224 -7.758,-7.459c-7.545,2.783 -14.9,6.114 -22.453,8.881Zm-39.39,38.053c7.236,6.825 14.608,13.505 21.844,20.337c8.931,-3.141 17.58,-7.072 26.657,-9.821c1.927,-6.987 3.596,-14.035 5.489,-21.031c-6.097,6.448 -12.228,12.861 -18.384,19.258c-6.954,-1.952 -13.967,-3.682 -20.946,-5.539c3.982,-4.796 8.007,-9.549 12.048,-14.284c-8.914,3.665 -17.794,7.415 -26.708,11.08Zm-155.522,-177.16c2.697,-0.265 5.429,-0.831 8.135,-0.54c32.325,13.136 64.651,26.271 96.95,39.485c14.747,-5.275 29.475,-10.61 44.229,-15.894c9.539,6.251 19.147,12.4 28.917,18.291c6.397,14.36 12.81,28.721 19.327,43.03c-3.939,-1.97 -7.69,-4.454 -11.842,-5.9c-15.311,0.651 -30.648,1.036 -45.942,2.029c-4.366,-9.437 -8.348,-19.052 -12.502,-28.592c-22.811,-0.925 -45.623,-1.746 -68.435,-2.62c-12.048,0.479 -24.08,1.335 -36.128,1.781c3.606,-1.901 7.279,-3.657 10.962,-5.412c-8.521,-12.057 -17.076,-24.097 -25.596,-36.153c-0.514,0.043 -1.533,0.12 -2.047,0.163c-1.404,2.235 -2.063,5.266 -4.674,6.448c-4.513,2.569 -8.975,5.231 -13.496,7.783c3.938,-8.023 8.221,-15.867 12.142,-23.899Zm128.095,41.976c7.407,0.779 14.848,1.25 22.264,1.936c1.028,0.042 1.918,0.581 2.765,1.112c7.964,5.224 15.988,10.362 23.969,15.577c-2.064,-3.922 -3.999,-7.955 -6.44,-11.655c-7.381,-4.966 -15.096,-9.462 -22.649,-14.172c-6.611,2.483 -13.358,4.582 -19.909,7.202Zm10.738,11.406c2.321,5.463 4.375,11.037 6.799,16.458c3.271,0.573 6.841,-0.172 10.233,-0.146c-0.968,-4.144 -1.765,-8.315 -2.689,-12.459c-1.782,-0.967 -3.46,-2.149 -5.327,-2.937c-2.988,-0.505 -6.019,-0.565 -9.016,-0.916Zm26.229,16.065c2.106,-0.069 4.203,-0.172 6.31,-0.284c-1.806,-1.284 -3.656,-2.509 -5.506,-3.724c-0.266,1.335 -0.539,2.663 -0.804,4.008Zm35.871,-4.445c3.724,3.152 6.944,6.842 9.058,11.277c-3.707,-3.176 -7.817,-6.285 -9.058,-11.277Zm-31.042,38.388c2.894,-2.15 5.857,-4.205 8.751,-6.354c1.019,0.626 2.047,1.251 3.075,1.867c-2.433,1.858 -4.864,3.716 -7.296,5.566c-1.516,-0.385 -3.023,-0.737 -4.53,-1.079Zm9.805,2.568c2.106,-1.463 4.144,-3.021 6.131,-4.632c0.564,0.3 1.678,0.891 2.235,1.19c-1.739,1.405 -3.477,2.818 -5.172,4.265c-1.062,-0.317 -2.132,-0.531 -3.194,-0.823Zm8.443,2.236c1.395,-1.122 2.749,-2.312 4.265,-3.289c2.337,1.379 -1.251,2.886 -2.141,3.974c-0.711,-0.232 -1.43,-0.462 -2.124,-0.685Zm7.484,1.746c1.215,-0.573 2.894,-2.807 3.656,-0.522c-0.984,1.045 -2.535,1.859 -3.656,0.522Zm7.416,1.688c0.813,-0.428 1.609,-0.351 2.397,0.24c0.137,0.359 0.411,1.062 0.549,1.412c-0.858,0.283 -1.705,0.215 -2.553,-0.197c-0.103,-0.359 -0.291,-1.088 -0.393,-1.455Zm-34.493,0.291c1.687,0.291 3.392,0.6 5.087,0.908c1.815,2.423 3.639,4.838 5.489,7.236c-0.762,0.094 -2.287,0.273 -3.049,0.367c-2.595,-2.756 -5.035,-5.659 -7.527,-8.511Zm9.84,1.806c1.061,0.189 2.132,0.369 3.211,0.566c1.249,1.747 2.509,3.503 3.75,5.275c-0.599,0.051 -1.789,0.163 -2.381,0.222c-1.507,-2.038 -3.04,-4.058 -4.58,-6.063Zm7.869,1.311c2.397,0.163 3.382,2.38 4.581,4.101c-2.492,0.669 -3.254,-2.662 -4.581,-4.101Zm6.911,1.439c1.326,-0.694 3.065,1.044 2.525,2.389c-1.164,0.778 -3.108,-1.216 -2.525,-2.389Zm42.164,1.968c-2.364,-0.684 1.284,-3.519 1.566,-1.267c-0.385,0.317 -1.173,0.952 -1.566,1.267Zm-2.458,3.905c0.223,-1.798 4.144,-1.824 2.92,0.275c-0.753,0.513 -2.646,0.933 -2.92,-0.275Zm-99.109,18.351c6.037,-5.72 11.972,-11.551 18.103,-17.178c-3.948,6.26 -8.281,12.297 -12.117,18.625c-0.788,7.262 -0.197,14.651 -0.857,21.939c-1.746,-7.784 -3.416,-15.593 -5.129,-23.386Z" style="fill:#000001;fill-rule:nonzero;"/><path d="M662.401,1308.73c6.019,-1.815 12.049,-3.596 18.086,-5.334c4.11,2.208 8.451,3.981 12.382,6.507c-4.256,1.371 -8.572,2.561 -12.845,3.914c-1.438,0.368 -2.972,1.173 -4.435,0.436c-4.419,-1.78 -8.897,-3.459 -13.188,-5.523Zm43.253,-1.627c3.339,-1.036 6.687,-2.132 10.104,-2.886c3.082,0.574 5.711,2.621 8.52,3.982c-3.442,1.088 -6.919,2.055 -10.353,3.169c-2.817,-1.122 -5.703,-2.09 -8.426,-3.425c0.043,-0.214 0.12,-0.626 0.155,-0.84Zm20.859,9.368c3.16,-1.045 6.354,-1.944 9.565,-2.792c2.235,1.105 4.496,2.193 6.508,3.674c-2.937,0.779 -5.788,1.927 -8.794,2.424c-2.544,-0.806 -5.095,-1.747 -7.279,-3.306Zm-17.957,2.492c1.123,-0.265 2.381,-0.848 3.477,-0.138c3.245,1.585 6.482,3.178 9.642,4.942c-4.565,1.447 -9.171,2.74 -13.726,4.196c-4.077,-1.712 -8.247,-3.186 -12.229,-5.104c4.239,-1.422 8.564,-2.586 12.836,-3.896Zm86.599,5.395c3.091,2.509 6.19,5.009 9.136,7.698c-0.642,2.167 -1.225,4.35 -1.85,6.525c-2.902,-4.47 -4.906,-9.462 -7.286,-14.223Zm-72.692,20.2c6.551,-2.62 13.298,-4.719 19.909,-7.202c7.553,4.71 15.268,9.206 22.649,14.172c2.441,3.7 4.376,7.733 6.44,11.655c-7.981,-5.215 -16.005,-10.353 -23.969,-15.577c-0.847,-0.531 -1.737,-1.07 -2.765,-1.112c-7.416,-0.686 -14.857,-1.157 -22.264,-1.936Zm-72.298,26.366c4.709,-3.28 9.462,-6.542 14.359,-9.531c4.137,-0.719 8.453,0.214 12.648,0.257c-3.261,2.405 -6.653,4.632 -9.907,7.055c-1.404,0.926 -2.775,2.261 -4.589,2.09c-4.17,0.06 -8.341,0.155 -12.511,0.129Zm26.905,-0.634c3.562,-2.911 7.356,-5.584 11.278,-7.972c3.039,-0.198 6.079,0.197 9.119,0.325c-2.594,2.655 -5.489,4.992 -8.263,7.449c-4.042,0.07 -8.092,0.258 -12.134,0.198Zm30.279,-6.979c3.151,-0.335 6.328,0.18 9.488,0.24c-2.132,2.029 -4.119,4.289 -6.611,5.899c-3.391,0.403 -6.833,0.249 -10.242,0.334c2.365,-2.252 4.719,-4.546 7.365,-6.473Zm-86.358,32.283c7.483,-5.344 15.285,-10.259 22.863,-15.483c6.285,0.275 12.579,0.515 18.865,0.832c-5.541,4.324 -11.441,8.169 -17.084,12.356c-1.138,0.727 -2.217,1.815 -3.656,1.841c-6.988,0.291 -13.992,0.411 -20.988,0.454Zm41.368,-1.164c5.676,-4.454 11.723,-8.409 17.502,-12.717c4.864,0.077 9.728,0.403 14.592,0.565c-4.281,3.922 -8.468,7.998 -13.085,11.526c-6.319,0.48 -12.673,0.497 -19.009,0.626Zm35.751,-1.079c3.741,-3.623 7.706,-6.989 11.611,-10.431c4.847,0.198 9.693,0.506 14.549,0.626c-3.272,3.228 -6.542,6.575 -10.242,9.281c-5.292,0.369 -10.618,0.369 -15.918,0.524Zm37.317,4.845c5.805,-1.18 11.689,-2.054 17.486,-3.322c-3.194,5.001 -6.723,9.762 -9.933,14.745c-7.604,1.97 -15.14,4.214 -22.821,5.875c4.179,-4.975 8.298,-9.993 12.365,-15.062c0.805,-0.917 1.559,-2.107 2.903,-2.236Zm-41.941,7.878c8.151,-1.806 16.423,-3.185 24.652,-4.648c-5.137,6.251 -10.079,12.715 -15.516,18.701c-10.661,3.117 -21.484,5.746 -32.231,8.554c7.604,-7.612 15.19,-15.301 23.095,-22.607Zm-41.249,7.45c7.527,-1.369 15.044,-2.826 22.589,-4.11c-7.758,7.741 -15.619,15.363 -23.351,23.121c-1.679,1.995 -4.375,2.32 -6.74,2.962c-6.31,1.627 -12.647,3.178 -18.983,4.71c6.996,-7.835 14.394,-15.328 21.501,-23.077c1.448,-1.448 2.724,-3.468 4.984,-3.606Zm73.129,10.687c3.04,-1.559 6.028,-3.228 9.119,-4.675c-1.121,4.025 -2.449,7.989 -3.639,12.005c-3.263,2.021 -6.491,4.085 -9.745,6.123c1.31,-4.521 2.749,-9 4.265,-13.453Zm68.376,-4.324c1.404,-0.368 1.943,0.129 1.609,1.472c-1.421,0.369 -1.961,-0.127 -1.609,-1.472Zm-91.386,16.449c3.16,-1.73 6.397,-3.331 9.582,-5.017c-1.147,4.17 -2.569,8.254 -3.801,12.399c-0.428,1.215 -0.694,2.672 -1.987,3.279c-4.247,2.647 -8.469,5.353 -12.767,7.922c2.286,-5.489 4.701,-10.919 6.987,-16.399c0.326,-0.993 1.045,-1.747 1.986,-2.184Zm-34.141,18.085c5.892,-3.321 11.954,-6.377 17.966,-9.504c-2.834,6.585 -5.438,13.298 -8.58,19.737c-6.713,4.685 -13.881,8.752 -20.877,13.017c3.811,-7.751 7.288,-15.722 11.491,-23.25Zm52.193,-5.188c1.704,-1.189 3.407,-2.389 5.12,-3.57c-0.385,2.465 -0.582,4.975 -1.258,7.388c-1.464,1.868 -3.502,3.169 -5.301,4.685c0.411,-2.852 0.908,-5.678 1.439,-8.503Zm-13.633,10.13c1.747,-1.884 4.051,-3.125 6.106,-4.633c-0.54,3.109 -0.814,6.285 -1.662,9.342c-2.26,2.39 -5,4.273 -7.509,6.396c0.95,-3.715 1.747,-7.5 3.065,-11.105Zm-17.734,12.45c3.04,-2.312 6.217,-4.461 9.333,-6.688c-1.121,4.205 -2.088,8.46 -3.51,12.579c-3.528,3.571 -7.69,6.457 -11.491,9.737c1.105,-4.119 2.619,-8.101 3.818,-12.194c0.437,-1.216 0.642,-2.697 1.85,-3.434Z" style="fill:#aeacae;fill-rule:nonzero;"/></g><circle cx="708.333" cy="1406.25" r="5.545" style="fill:#e30613;"/><path d="M708.333,1396.54c-5.36,-0 -9.711,4.351 -9.711,9.711c-0,5.36 4.351,9.711 9.711,9.711c5.36,0 9.712,-4.351 9.712,-9.711c-0,-5.36 -4.352,-9.711 -9.712,-9.711Zm0,4.166c3.061,0 5.545,2.485 5.545,5.545c0,3.06 -2.484,5.545 -5.545,5.545c-3.06,-0 -5.544,-2.485 -5.544,-5.545c-0,-3.06 2.484,-5.545 5.544,-5.545Z" style="fill:#fff;"/><g><path d="M1269.99,2374.08l-471.8,0" style="fill:none;fill-rule:nonzero;stroke:#e30613;stroke-width:4.29px;"/><path d="M1269.99,2292.59l-471.8,-0" style="fill:none;fill-rule:nonzero;stroke:#e30613;stroke-width:4.29px;"/><circle cx="1034.09" cy="2335.48" r="210.166" style="fill:#fff;stroke:#e30613;stroke-width:4.29px;"/><path d="M1046.1,2415.69l-0,-52.327l39.03,-0" style="fill:none;fill-rule:nonzero;stroke:#e30613;stroke-width:4.29px;"/><path d="M1022.94,2415.69l0,-52.327l-39.459,-0" style="fill:none;fill-rule:nonzero;stroke:#e30613;stroke-width:4.29px;"/><path d="M1046.1,2253.13l-0,52.327l39.03,-0" style="fill:none;fill-rule:nonzero;stroke:#e30613;stroke-width:4.29px;"/><path d="M1022.94,2253.13l0,52.327l-39.459,-0" style="fill:none;fill-rule:nonzero;stroke:#e30613;stroke-width:4.29px;"/><circle cx="1034.09" cy="2335.48" r="17.156" style="fill:#e30613;"/></g><g><path d="M625.339,195.216c0,44.952 37.315,81.501 83.209,81.501c45.893,-0 83.208,-36.549 83.208,-81.501l-166.417,0Z" style="fill:#b3ffff;fill-rule:nonzero;stroke:#e30613;stroke-width:4.25px;"/><path d="M651.074,232.186l-0,18.064l14.583,0" style="fill:none;fill-rule:nonzero;stroke:#e30613;stroke-width:4.25px;"/><path d="M766.022,232.186l-0,18.064l-15.012,0" style="fill:none;fill-rule:nonzero;stroke:#e30613;stroke-width:4.25px;"/></g><g><path d="M625.339,2618.51c0,-45.628 37.315,-82.727 83.209,-82.727c45.893,0 83.208,37.099 83.208,82.727l-166.417,-0Z" style="fill:#5ac0c9;fill-rule:nonzero;stroke:#e30613;stroke-width:4.28px;"/><path d="M651.074,2580.56l-0,-17.91l14.583,0" style="fill:none;fill-rule:nonzero;stroke:#e30613;stroke-width:4.28px;"/><path d="M766.022,2580.56l-0,-17.91l-15.012,0" style="fill:none;fill-rule:nonzero;stroke:#e30613;stroke-width:4.28px;"/></g><circle cx="708.119" cy="1406.25" r="205.877" style="fill:none;stroke:#1d71b8;stroke-width:4.29px;"/><circle cx="382.148" cy="1065.91" r="17.156" style="fill:#e30613;"/><circle cx="1038.38" cy="1065.91" r="17.156" style="fill:#e30613;"/><circle cx="382.148" cy="1739.3" r="17.156" style="fill:#e30613;"/><circle cx="1038.38" cy="1739.3" r="17.156" style="fill:#e30613;"/></g></svg>